<svg class="icon" viewBox="0 0 1024 1024" version="1.1" xmlns="http://www.w3.org/2000/svg"
     width="45" height="45">
    <path d="M845.568 977.408H187.904c-51.968 0-94.464-42.24-94.464-94.464V140.032c0-51.968 42.24-94.464 94.464-94.464h504.064c8.192 0 15.872 3.328 21.76 8.96 10.496 10.496 49.408 46.592 90.368 84.992 52.736 49.152 107.264 99.84 126.976 119.552 5.888 5.888 8.96 13.568 8.96 21.76V883.2c0 51.968-42.496 94.208-94.464 94.208zM187.904 107.008c-18.176 0-33.024 14.848-33.024 33.024V883.2c0 18.176 14.848 33.024 33.024 33.024h657.664c18.176 0 33.024-14.848 33.024-33.024V293.888c-24.32-23.552-72.96-68.864-116.48-109.312-34.816-32.512-66.048-61.44-82.688-77.312h-491.52z"
          fill="#040000" ></path>
    <path d="M903.424 312.576h-147.456c-51.2 0-92.928-41.728-92.928-92.928v-145.92h61.44v146.176c0 17.408 14.08 31.488 31.488 31.488h147.456v61.184zM722.176 764.928H318.208c-16.896 0-30.72-13.824-30.72-30.72s13.824-30.72 30.72-30.72H721.92c16.896 0 30.72 13.824 30.72 30.72s-13.568 30.72-30.464 30.72zM722.176 617.472H318.208c-16.896 0-30.72-13.824-30.72-30.72s13.824-30.72 30.72-30.72H721.92c16.896 0 30.72 13.824 30.72 30.72s-13.568 30.72-30.464 30.72zM587.776 470.016H318.208c-16.896 0-30.72-13.824-30.72-30.72s13.824-30.72 30.72-30.72h269.312c16.896 0 30.72 13.824 30.72 30.72s-13.568 30.72-30.464 30.72zM490.496 322.56h-172.032c-16.896 0-30.72-13.824-30.72-30.72s13.824-30.72 30.72-30.72h172.032c16.896 0 30.72 13.824 30.72 30.72s-13.824 30.72-30.72 30.72z"
          fill="#040000" ></path>
</svg>