<svg class="icon" viewBox="0 0 1024 1024" version="1.1" xmlns="http://www.w3.org/2000/svg"
     width="45" height="45">
    <path d="M510.0032 492.9536c-12.16 0-24.3456-2.3808-35.9424-7.1168L71.7824 300.5952c-11.3408-4.6336-18.816-15.5648-19.072-27.8016s6.784-23.4496 17.92-28.544l400.1536-183.296a100.1728 100.1728 0 0 1 82.7648-0.3072l398.1056 178.8416c11.1616 5.0176 18.2784 16.1792 18.1248 28.416s-7.5776 23.2192-18.8672 27.9296l-404.3264 189.7216a94.26944 94.26944 0 0 1-36.5824 7.3984zM160.64 270.592l336.7424 158.3872a33.0496 33.0496 0 0 0 25.5232-0.1024l338.9952-162.3808-333.5424-149.8112a38.6688 38.6688 0 0 0-32 0.128L160.64 270.592z"
          fill="#040000"></path>
    <path d="M510.1568 722.7648c-14.4896 0-28.9536-3.3536-42.1632-10.0864L68.3264 509.0816c-8.576-4.3776-15.0784-12.2624-16.9472-21.6832a30.7072 30.7072 0 0 1 15.0272-32.8192l189.6704-106.9568c19.5584-11.0336 44.3136-4.1216 55.3472 15.4368l10.2144 18.1248-175.1808 98.7904L495.872 657.92a31.5392 31.5392 0 0 0 28.672-0.0512l354.0224-181.9136-175.9488-100.736 10.3424-18.0736c11.1616-19.4816 35.968-26.2144 55.4496-15.0784l189.7984 108.672c9.7792 5.6064 15.6928 16.1024 15.4368 27.3664s-6.656 21.4784-16.6656 26.624l-404.352 207.7696a92.53376 92.53376 0 0 1-42.4704 10.2656z"
          fill="#040000"></path>
    <path d="M512.2048 975.9744c-4.7872 0-9.5744-1.1264-13.952-3.3536L70.2464 754.5856c-8.576-4.3776-15.0784-12.2624-16.9472-21.7088a30.72512 30.72512 0 0 1 15.0272-32.8192l192.1536-108.3648c18.176-10.24 41.2416-3.8144 51.4816 14.3616l11.6224 20.608-175.1808 98.7904 363.7504 185.2928 368.3584-189.2608-175.9488-100.736 11.7504-20.5312c10.368-18.1248 33.4592-24.3968 51.584-14.0288l192.2816 110.08c9.7792 5.6064 15.6928 16.1024 15.4368 27.3664a30.72 30.72 0 0 1-16.6656 26.624l-432.6656 222.3104a31.0272 31.0272 0 0 1-14.08 3.4048z"
          fill="#040000"></path>
</svg>